<?xml version="1.0" encoding="UTF-8"?>
<svg id="Layer_1" data-name="Layer 1" xmlns="http://www.w3.org/2000/svg" viewBox="0 0 232.343 45">
  <defs>
    <style>
      .cls-1 {
        fill: #cc3362;
      }

      .cls-2 {
        fill: #ed6a03;
      }
    </style>
  </defs>
  <g>
    <path class="cls-2" d="m16.324.932H6.923C2.912.932,0,3.843,0,7.855v29.29c0,4.011,2.912,6.923,6.923,6.923h9.401c13.444,0,22.832-8.869,22.832-21.568S29.767.932,16.324.932Zm.465,31.686h-4.807V12.382h4.807c6.114,0,10.384,4.161,10.384,10.118s-4.27,10.117-10.384,10.117Z"/>
    <path class="cls-2" d="m79.496,6.124C79.496,2.576,76.977,0,73.505,0s-5.991,2.576-5.991,6.124v20.104c0,3.882-2.924,6.923-6.657,6.923s-6.657-3.041-6.657-6.923V6.124C54.2,2.576,51.681,0,48.209,0s-5.991,2.576-5.991,6.124v20.637c0,10.739,7.664,18.239,18.639,18.239s18.639-7.5,18.639-18.239V6.124Z"/>
    <path class="cls-2" d="m158.767,33.836l-10.186-11.516,9.498-11.128c1.385-1.608,2.115-3.243,2.115-4.735,0-3.622-2.777-6.458-6.323-6.458-1.803,0-3.475.987-5.11,3.016l-10.732,14.368V6.124c0-3.663-2.408-6.124-5.991-6.124s-5.991,2.461-5.991,6.124v32.752c0,3.663,2.408,6.124,5.991,6.124s5.991-2.461,5.991-6.124v-11.355l11.521,14.65c1.663,2.008,3.09,2.829,4.919,2.829,3.549,0,6.125-2.715,6.125-6.458,0-1.686-.666-3.402-1.826-4.707Z"/>
    <path class="cls-2" d="m175.638,6.124C175.638,2.461,173.23,0,169.647,0s-5.991,2.461-5.991,6.124v32.752c0,3.663,2.408,6.124,5.991,6.124s5.991-2.461,5.991-6.124V6.124Z"/>
    <path class="cls-1" d="m232.302,6.474c.389-3.313-2.084-5.416-4.609-5.713-2.1-.247-3.713.386-4.794,1.879-.81,1.117-1.31,2.796-1.621,5.443-.322,2.741-.291,4.58.099,5.788.543,1.618,1.79,2.621,3.513,2.823,3.255.382,4.801-2.246,6.674-7.562.387-1.094.678-2.137.739-2.659Z"/>
    <path class="cls-2" d="m95.757,22.15v16.726c0,3.663-2.408,6.124-5.991,6.124s-5.991-2.461-5.991-6.124V6.124C83.775,2.461,86.183,0,89.766,0c1.728,0,3.305.636,4.225,1.576.921.94,15.957,21.274,15.957,21.274V6.124C109.949,2.461,112.357,0,115.94,0s5.991,2.461,5.991,6.124v32.752c0,3.663-2.408,6.124-5.991,6.124-1.728,0-3.296-.626-4.225-1.576s-15.957-21.274-15.957-21.274Z"/>
    <path class="cls-2" d="m191.788,22.15v16.726c0,3.663-2.408,6.124-5.991,6.124s-5.991-2.461-5.991-6.124V6.124C179.806,2.461,182.214,0,185.797,0c1.728,0,3.305.636,4.225,1.576.921.94,15.957,21.274,15.957,21.274V6.124C205.979,2.461,208.387,0,211.97,0s5.991,2.461,5.991,6.124v32.752c0,3.663-2.408,6.124-5.991,6.124-1.728,0-3.296-.626-4.225-1.576s-15.957-21.274-15.957-21.274Z"/>
  </g>
  <g>
    <path class="cls-2" d="m224.306,40.531h-1c-.197,0-.331.134-.331.333v2.391c0,.2.127.331.322.331.19,0,.322-.136.322-.331v-.781h.397l.72.971c.064.091.16.141.265.141.199,0,.322-.124.322-.322,0-.078-.035-.141-.117-.258l-.446-.617.145-.105c.241-.173.373-.45.373-.781,0-.572-.401-.973-.973-.973Zm-.221,1.483h-.465v-1.023h.465c.322,0,.547.211.547.512s-.225.511-.547.511Z"/>
    <path class="cls-2" d="m224.084,39.118c-1.668,0-3.027,1.32-3.027,2.942s1.359,2.94,3.027,2.94,3.025-1.32,3.025-2.94-1.357-2.942-3.025-2.942Zm0,5.356c-1.333,0-2.416-1.083-2.416-2.414s1.083-2.416,2.416-2.416,2.416,1.083,2.416,2.416-1.083,2.414-2.416,2.414Z"/>
  </g>
</svg>