<svg height="100%" width="75" height="75" viewBox="0 0 75 75" version="1.1">
	<path d="M 5.517 17.133 C 3.327 17.646, 1.190 18.410, 0.768 18.832 C 0.035 19.565, 4.966 35.825, 6 36.084 C 6.275 36.153, 9.795 35.209, 13.822 33.986 C 18.524 32.557, 22.409 31.967, 24.680 32.335 C 28.012 32.876, 28.189 32.767, 27.744 30.443 C 27.315 28.199, 27.768 27.833, 32.769 26.379 C 35.791 25.500, 39.728 25.019, 41.517 25.309 C 44.318 25.764, 44.703 25.579, 44.285 23.981 C 43.487 20.931, 39.065 20.043, 31.630 21.441 C 25.466 22.599, 25 22.561, 25 20.900 C 25 16.501, 15.809 14.724, 5.517 17.133 M 47.250 26.662 C 46.563 26.940, 46 27.834, 46 28.651 C 46 29.673, 45.386 29.940, 44.026 29.508 C 42.941 29.164, 39.309 29.652, 35.956 30.592 C 30.491 32.126, 29.917 32.532, 30.415 34.516 C 30.934 36.584, 30.564 36.763, 24.735 37.258 C 17.022 37.914, 8.994 41.211, 9.015 43.714 C 9.051 47.847, 10.394 48.158, 16.511 45.453 C 19.736 44.026, 24.653 42.700, 27.438 42.505 C 31.873 42.195, 32.503 41.879, 32.523 39.949 C 32.542 38.245, 33.671 37.305, 37.515 35.795 C 40.247 34.722, 43.724 34.026, 45.241 34.249 C 47.364 34.560, 48 34.247, 48 32.888 C 48 31.563, 49.119 30.955, 52.488 30.450 C 54.956 30.079, 57.633 30.029, 58.437 30.337 C 60.539 31.144, 59.235 28.196, 56.948 26.972 C 55.063 25.963, 49.429 25.783, 47.250 26.662 M 51.216 34.845 C 50.510 35.293, 50.181 36.309, 50.486 37.103 C 50.908 38.201, 50.141 38.548, 47.270 38.557 C 45.196 38.563, 41.382 39.451, 38.792 40.529 C 34.752 42.211, 34.165 42.809, 34.651 44.745 C 35.154 46.750, 34.844 47, 31.852 47 C 27.246 47, 22.651 48.429, 17.448 51.478 C 13.366 53.870, 13.142 54.218, 14.193 56.523 C 14.813 57.886, 15.586 58.992, 15.911 58.981 C 16.235 58.971, 19.592 57.396, 23.370 55.481 C 27.267 53.507, 31.734 52, 33.690 52 C 36.695 52, 37.098 51.710, 36.820 49.750 C 36.559 47.915, 37.394 47.085, 41.349 45.250 C 44.016 44.013, 47.759 43, 49.667 43 C 52.647 43, 53.048 42.726, 52.518 41.055 C 51.967 39.320, 52.552 39.037, 57.950 38.426 C 64.177 37.722, 64.864 37.264, 62.800 35.200 C 61.449 33.849, 53.185 33.596, 51.216 34.845 M 57.821 42.355 C 54.730 43.317, 54.298 43.781, 55.120 45.250 C 55.972 46.773, 55.635 47, 52.516 47 C 50.546 47, 46.737 48.113, 44.053 49.473 C 40.117 51.468, 39.276 52.338, 39.703 53.973 C 40.392 56.606, 40.731 56.561, 47.635 52.929 C 51.048 51.133, 54.425 50.039, 55.762 50.295 C 57.557 50.638, 57.933 50.365, 57.509 49.029 C 57.097 47.732, 57.894 47.049, 60.850 46.163 C 62.985 45.523, 65.805 44.985, 67.116 44.967 L 69.500 44.933 67.139 42.967 C 64.511 40.777, 63.173 40.689, 57.821 42.355 M 63.406 49.806 C 61.035 50.787, 59.492 52.026, 59.739 52.750 C 60.324 54.461, 63.484 54.318, 67.166 52.414 C 68.853 51.542, 71.081 51.049, 72.117 51.320 C 74.581 51.965, 74.545 50.362, 72.066 49.035 C 69.522 47.674, 68.295 47.783, 63.406 49.806" stroke="none" fill="black" fill-rule="evenodd"/>
</svg>
